<svg xmlns="http://www.w3.org/2000/svg" viewBox="0 0 24 24" fill="currentColor">
  <path d="M8.5 13.5a1 1 0 1 1 0-2 1 1 0 0 1 0 2zm3 0a1 1 0 1 1 0-2 1 1 0 0 1 0 2zm3 0a1 1 0 1 1 0-2 1 1 0 0 1 0 2zm2.5-3.5c-1.5 0-2.8.6-3.8 1.6-.5.5-1.4.5-2 0-.4-.5-.5-1.2-.3-1.8.4-1.2 1.5-2.3 2.8-2.8 1.3-.5 2.7-.4 4 .1 2 .8 3.4 2.5 3.8 4.5.1.5 0 1-.4 1.2-.4.2-.9.2-1.3 0-.7-.4-1.3-.9-1.8-1.4z"/>
  <rect x="3" y="3" width="18" height="18" rx="3" fill="#07C160"/>
  <path d="M8 12c0-2.2 1.8-4 4-4s4 1.8 4 4-1.8 4-4 4" stroke="white" stroke-width="2" fill="none"/>
  <circle cx="8" cy="10" r="1.5" fill="white"/>
  <circle cx="16" cy="10" r="1.5" fill="white"/>
</svg>
