<svg xmlns="http://www.w3.org/2000/svg" viewBox="0 0 24 24" fill="currentColor">
  <rect width="24" height="24" rx="4" fill="#E6162D"/>
  <path d="M12 4C7.6 4 4 6.7 4 10c0 2 1.2 3.8 3 4.9v2.1c0 .6.4 1 1 1h2c.6 0 1-.4 1-1v-1c.5-.1 1-.3 1.5-.5l.5 1.5c.1.3.4.5.7.5h1.8c.6 0 1-.4 1-1v-2c2-1 3.5-2.8 3.5-4.9 0-3.3-3.6-6-8-6zm0 2c3.3 0 6 1.8 6 4s-2.7 4-6 4-6-1.8-6-4 2.7-4 6-4z" fill="white"/>
  <circle cx="9" cy="9" r="1" fill="white"/>
  <circle cx="9" cy="12" r="1" fill="white"/>
  <circle cx="12" cy="9" r="1" fill="white"/>
  <circle cx="12" cy="12" r="1" fill="white"/>
</svg>
